<svg id="Capa_1" data-name="Capa 1" xmlns="http://www.w3.org/2000/svg" viewBox="0 0 125.7 150"><defs><style>.cls-1{fill:#b92323;}</style></defs><title>Magic</title><g id="Grupo_408" data-name="Grupo 408"><path id="Trazado_88" data-name="Trazado 88" class="cls-1" d="M86.8,143.1l-1.4-.6L42,127c-2.4-.9-2.7-1.2-2.7-3.7V90.5a2.3,2.3,0,0,1,2.3-2.4A2.3,2.3,0,0,1,44,90.4v.2a6.6,6.6,0,0,1,.1,1.4c0,9.7,0,19.4-.1,29.1a1.8,1.8,0,0,0,1.4,2l41.3,14.7a4.5,4.5,0,0,0,2.3,0l21.4-7.6,1.8-.5a2.3,2.3,0,0,1,1.4,4.4,23.4,23.4,0,0,1-2.4.9l-21.1,7.5-1.2.7Z" transform="translate(-21.5 6.9)"/><path id="Trazado_89" data-name="Trazado 89" class="cls-1" d="M86.7,83.4,74,97.5c-1.2,1.3-2.3,1.8-4.1,1s-4.8-1.8-7.2-2.8-2.5-1.8-2-3.2,1.7-1.9,3.5-1.2l5.9,2.2a2.2,2.2,0,0,0,1.4-.2c3.7-4,7.3-8.1,11.1-12.3L77,78.8c-10.5-4-21-7.9-31.5-12a1.9,1.9,0,0,0-2.5.6c-3.4,3.9-6.9,7.7-10.6,11.7l4.1,1.6,18.2,6.9c1.1.4,2.2.9,2.3,2.3s-1.3,3.2-3.3,2.4L40,87.1,28.3,82.7c-2.4-1-2.8-2.8-1-4.8l14-15.4a4.9,4.9,0,0,1,1.8-1.4c4.1-1.6,8.3-3.2,12.6-4.7a3.1,3.1,0,0,1,2.5.5,2.5,2.5,0,0,1,.5,2.2,5.2,5.2,0,0,1-2,1.9c-2,.9-4.1,1.6-6.4,2.5l1.5.7L85.3,76.9a3.6,3.6,0,0,0,2.3.1L122,64l1.1-.5-5.2-2-1.8-.8a2.2,2.2,0,0,1-1.2-2.9,1.9,1.9,0,0,1,2.4-1.5h.4L128,60.2a12.2,12.2,0,0,1,5.6,3.9L146,77.8c1.9,2.2,1.5,3.9-1.1,4.9L103.2,98.6a3,3,0,0,1-3.7-1ZM90.8,81l1,1.1,9.6,10.7a1.6,1.6,0,0,0,2.2.6l35.8-13.7,1.5-.6c-3.6-4-7.2-7.9-10.6-11.8a1.6,1.6,0,0,0-2.3-.5L97,78.6,90.8,81Z" transform="translate(-21.5 6.9)"/><path id="Trazado_90" data-name="Trazado 90" class="cls-1" d="M95.3,18.2A5,5,0,0,1,91.2,23l-4.1.9c-7,1.5-9.9,4.5-11.2,11.5a32.8,32.8,0,0,1-1.1,4.5,4.8,4.8,0,0,1-9.1,0,52.5,52.5,0,0,1-1.3-5.7C63.2,28.5,59.7,25.1,54,24l-4.4-.9c-2.7-.6-4.3-2.3-4.3-4.8s1.3-4.3,4.1-5,2.9-.6,4.3-.9C60.2,11.1,63.3,7.8,64.6,1a37.4,37.4,0,0,1,1.2-4.8A4.8,4.8,0,0,1,72-6.5a4.5,4.5,0,0,1,2.7,2.7,55.4,55.4,0,0,1,1.4,5.5c1.4,6.5,4.6,9.5,11.1,10.8a43.7,43.7,0,0,1,4.9,1.2A4.5,4.5,0,0,1,95.3,18.2ZM70.2,38.1c1.2-5.2,2.1-10.3,6-14.1s9-4.7,14-5.8c-5-1.2-10.1-2-14-5.8s-4.8-9-5.9-14.1c-1.2,5-2,10.1-6,14s-9,4.7-14.2,6C62.4,19.3,69.1,25.8,70.2,38.1Z" transform="translate(-21.5 6.9)"/><path id="Trazado_91" data-name="Trazado 91" class="cls-1" d="M136.7,24.2a4.1,4.1,0,0,1-2.8,3.9,42.1,42.1,0,0,1-4.8,1.2,8.8,8.8,0,0,0-7.3,7.3c-.3,1.5-.6,3-1,4.4a4.3,4.3,0,0,1-5.2,3.1,4.1,4.1,0,0,1-3.1-3.2,31.3,31.3,0,0,1-1-4.4,8.7,8.7,0,0,0-7.2-7.2c-1.5-.3-3-.5-4.4-.9a4.3,4.3,0,0,1-3.2-5.2A4.2,4.2,0,0,1,99.9,20l4.4-1a8.8,8.8,0,0,0,7.2-7.1c.3-1.5.5-3,.9-4.4a4.3,4.3,0,0,1,8.4-.1c.4,1.4.6,2.9,1,4.4A8.7,8.7,0,0,0,129,19c1.6.4,3.3.7,4.8,1.2A4.3,4.3,0,0,1,136.7,24.2Zm-33.2-.1a28.1,28.1,0,0,1,4.9,1.6,13.8,13.8,0,0,1,4,2.8,16.5,16.5,0,0,1,2.8,4.1,36.8,36.8,0,0,1,1.5,4.7c1.2-7.6,5.6-11.9,12.9-13.1-7.4-1.3-11.7-5.7-13-13.1-1.2,7.5-5.6,11.8-13.1,13Z" transform="translate(-21.5 6.9)"/><path id="Trazado_92" data-name="Trazado 92" class="cls-1" d="M131.1,107.5c0,5.4,0,10.8.1,16.2a2.9,2.9,0,0,1-2.2,3.1l-11,3.9c-2,.7-3.3.3-3.8-1.2s.2-2.6,2.1-3.3,5.7-2.1,8.6-3a1.9,1.9,0,0,0,1.6-2.2c-.1-10.1-.1-20.1-.1-30.1,0-2.1,1.5-3.3,3.2-2.7s1.6,1.5,1.6,2.8C131.1,96.5,131.1,102,131.1,107.5Z" transform="translate(-21.5 6.9)"/><path id="Trazado_93" data-name="Trazado 93" class="cls-1" d="M84.2,110.2V90.8c0-1.8.8-2.8,2.2-2.8a2.3,2.3,0,0,1,2.5,2.1v39.8c0,1.8-.9,2.9-2.3,2.9s-2.4-1-2.4-2.8V110.2Z" transform="translate(-21.5 6.9)"/><path id="Trazado_94" data-name="Trazado 94" class="cls-1" d="M50.3,34.3a6,6,0,0,1,1.5.9c8.1,8.3,15.2,17.4,20,28.1l.4.9a2.5,2.5,0,0,1-1.1,3.4c-1.3.5-2.5-.1-3.3-1.5a135.1,135.1,0,0,0-7.4-12.9c-3.5-4.9-7.6-9.4-11.4-14a10.1,10.1,0,0,1-1.3-1.6C46.9,36,48.1,34.3,50.3,34.3Z" transform="translate(-21.5 6.9)"/><path id="Trazado_95" data-name="Trazado 95" class="cls-1" d="M91.9,58.7c.5-3.8,1.1-7.9,1.6-12.1s1.4-10.9,2.2-16.3A2.2,2.2,0,0,1,98,28.2a2.1,2.1,0,0,1,2.3,1.7,8.1,8.1,0,0,1,0,2.2L98.8,43.8c-.7,5.3-1.5,10.6-2.2,15.8-.2,1.7-1.3,2.7-2.6,2.6S91.9,60.9,91.9,58.7Z" transform="translate(-21.5 6.9)"/><path id="Trazado_96" data-name="Trazado 96" class="cls-1" d="M118.9,44.8a8.8,8.8,0,0,1-1.2,2.1,83.5,83.5,0,0,0-11.6,18.9,2.5,2.5,0,0,1-3.1,1.5l-.3-.2a2.4,2.4,0,0,1-1-3.3h.1a84.1,84.1,0,0,1,12.5-20.2,2.3,2.3,0,0,1,2.9-.8C117.9,43.2,118.3,44.1,118.9,44.8Z" transform="translate(-21.5 6.9)"/><path id="Trazado_97" data-name="Trazado 97" class="cls-1" d="M76.8,48.4c0-3.4,0-6.8.1-10.2s.8-2.9,2.3-2.9,2.4,1.1,2.4,2.9V58.9c0,1.8-1,2.9-2.4,2.9s-2.3-1.1-2.3-2.9C76.8,55.4,76.8,51.9,76.8,48.4Z" transform="translate(-21.5 6.9)"/><path id="Trazado_98" data-name="Trazado 98" class="cls-1" d="M37.8,21.6c0,1,.1,2,0,3a2.5,2.5,0,0,1-2.4,2.5A2.4,2.4,0,0,1,33,24.6h0a58,58,0,0,1,0-5.9,2.3,2.3,0,0,1,2.1-2.5h.3c1.4,0,2.3,1,2.4,2.7a26.2,26.2,0,0,1,0,2.8Z" transform="translate(-21.5 6.9)"/><path id="Trazado_99" data-name="Trazado 99" class="cls-1" d="M37.8,35.8c0,1,.1,2,0,3a2.4,2.4,0,1,1-4.8.1h0a58,58,0,0,1,0-5.9,2.3,2.3,0,0,1,2.1-2.5h.3c1.4,0,2.3,1,2.4,2.6a26.1,26.1,0,0,1,0,2.8Z" transform="translate(-21.5 6.9)"/><path id="Trazado_100" data-name="Trazado 100" class="cls-1" d="M27,30.3H23.9a2.4,2.4,0,0,1-.3-4.7h6.6a2.3,2.3,0,0,1,2.3,2.3h0a2.6,2.6,0,0,1-2.4,2.4H27Z" transform="translate(-21.5 6.9)"/><path id="Trazado_101" data-name="Trazado 101" class="cls-1" d="M43.7,30.3h-3a2.4,2.4,0,0,1-.1-4.7h0c2.2-.1,4.3-.1,6.4,0a2.4,2.4,0,0,1,2.3,2.4h0a2.5,2.5,0,0,1-2.5,2.3H43.7Z" transform="translate(-21.5 6.9)"/></g></svg>