<svg id="Capa_1" data-name="Capa 1" xmlns="http://www.w3.org/2000/svg" viewBox="0 0 24.4 25"><defs><style>.cls-1{fill:#c72124;}</style></defs><title>shopping cart</title><path id="Trazado_7" data-name="Trazado 7" class="cls-1" d="M62.4,40.3A3.2,3.2,0,0,0,60,39.2H43.2v-.4A3.1,3.1,0,0,0,40,36h-.2a1.1,1.1,0,0,0-1.1,1.1,1,1,0,0,0,1.1,1H40a1.1,1.1,0,0,1,1.1.9l1.4,12.3a5.2,5.2,0,0,0,5.2,4.6H58.5a1,1,0,0,0,1.1-1,1.1,1.1,0,0,0-1.1-1.1H47.7a3.1,3.1,0,0,1-3-2.1H57.1a5.3,5.3,0,0,0,5.2-4.3l.8-4.5a3.1,3.1,0,0,0-.7-2.6ZM61,42.5l-.8,4.6a3.1,3.1,0,0,1-3.1,2.6H44.4l-1-8.4H60a1.1,1.1,0,0,1,.8.3,1,1,0,0,1,.2.9Z" transform="translate(-38.7 -36)"/><circle id="Elipse_5" data-name="Elipse 5" class="cls-1" cx="7.7" cy="22.9" r="2.1"/><circle id="Elipse_6" data-name="Elipse 6" class="cls-1" cx="17.6" cy="22.9" r="2.1"/></svg>