<svg id="Capa_1" data-name="Capa 1" xmlns="http://www.w3.org/2000/svg" viewBox="0 0 28.3 19"><defs><style>.cls-1{fill:#c72124;}</style></defs><title>Mail</title><g id="Grupo_163" data-name="Grupo 163"><g id="Grupo_161" data-name="Grupo 161"><path id="Trazado_31" data-name="Trazado 31" class="cls-1" d="M93.7,61.2H71.9a3.3,3.3,0,0,1-3.2-3.3V45.4a3.2,3.2,0,0,1,3.2-3.2H93.7A3.2,3.2,0,0,1,97,45.4V57.9A3.4,3.4,0,0,1,93.7,61.2ZM71.9,44.3a1.1,1.1,0,0,0-1,1.1V57.9a1.1,1.1,0,0,0,1,1.1H93.7a1.1,1.1,0,0,0,1.1-1.1V45.4a1.1,1.1,0,0,0-1.1-1.1Z" transform="translate(-68.7 -42.2)"/></g><g id="Grupo_162" data-name="Grupo 162"><path id="Trazado_32" data-name="Trazado 32" class="cls-1" d="M82.8,52.9,69.3,46.4l1-2,12.5,6.1,12.6-6.1.9,2Z" transform="translate(-68.7 -42.2)"/></g></g></svg>