<svg id="Capa_1" data-name="Capa 1" xmlns="http://www.w3.org/2000/svg" viewBox="0 0 27.2 27"><defs><style>.cls-1{fill:#c72124;}</style></defs><title>Facebook</title><path id="Trazado_69" data-name="Trazado 69" class="cls-1" d="M74.1,55.6H77c.3,0,.3,0,.3-.3a6.1,6.1,0,0,1,.1-1.4c.1-.8.1-1.6.2-2.4s0-.3-.2-.3H74.5c-.2,0-.3,0-.3-.2V49.5a1.1,1.1,0,0,1,.8-1h2.4c.1,0,.2,0,.2-.2V45a.2.2,0,0,0-.2-.2H74a4.4,4.4,0,0,0-2.7.9,3.7,3.7,0,0,0-1.4,2.4,4.1,4.1,0,0,0-.2,1.6V51c0,.2,0,.2-.2.2H67.8c-.2,0-.2.1-.2.3v3.9c0,.1,0,.2.2.2h1.7c.2,0,.2,0,.2.2v9.9c0,.1,0,.2-.2.1a13.6,13.6,0,0,1-10.1-8.5,14.5,14.5,0,0,1-.8-3.6,13.6,13.6,0,0,1,11-14.5,14,14,0,0,1,3.5-.2,12.9,12.9,0,0,1,4.4,1.1,13.2,13.2,0,0,1,7.2,7.3,10.6,10.6,0,0,1,.9,3.5,16,16,0,0,1,0,3.1,10.1,10.1,0,0,1-.7,3A12.8,12.8,0,0,1,79,64.2a12.3,12.3,0,0,1-3.1,1.4l-1.7.3c-.1.1-.1,0-.1-.1h0V55.6Z" transform="translate(-58.6 -38.9)"/></svg>