<svg id="Capa_1" data-name="Capa 1" xmlns="http://www.w3.org/2000/svg" viewBox="0 0 23.9 21.9"><defs><style>.cls-1{fill:#c72124;}</style></defs><title>Favorito</title><g id="Grupo_12" data-name="Grupo 12"><g id="Grupo_11" data-name="Grupo 11"><path id="Trazado_6" data-name="Trazado 6" class="cls-1" d="M54.4,53.6l-1.7-1.5-5-4.7a26.7,26.7,0,0,1-3.1-3.6,9.2,9.2,0,0,1-1.7-2.9,7.5,7.5,0,0,1-.4-2.6,6.4,6.4,0,0,1,6.3-6.6H49a7.3,7.3,0,0,1,3,.6,7.5,7.5,0,0,1,2.4,1.9,8.8,8.8,0,0,1,2.4-1.9,8,8,0,0,1,3-.6A6.4,6.4,0,0,1,66.4,38v.3a7.5,7.5,0,0,1-.5,2.6,9,9,0,0,1-1.6,2.9,27.4,27.4,0,0,1-3.2,3.6c-1.3,1.3-2.9,2.9-4.9,4.7Zm0-3.2L59.1,46a30,30,0,0,0,3-3.2,12,12,0,0,0,1.5-2.4,7.8,7.8,0,0,0,.4-2.1,4.1,4.1,0,0,0-4-4.2h-.2a4.2,4.2,0,0,0-2.6.8,3.2,3.2,0,0,0-1.6,2H53.3a3.4,3.4,0,0,0-1.7-2,3.8,3.8,0,0,0-2.6-.8,4,4,0,0,0-4.1,4v.2a5.2,5.2,0,0,0,.4,2.1,12,12,0,0,0,1.5,2.4c.9,1.1,1.9,2.2,2.9,3.2Z" transform="translate(-42.5 -31.7)"/><circle id="Elipse_4" data-name="Elipse 4" class="cls-1" cx="12" cy="5.1" r="1.2"/></g></g></svg>