<svg id="Capa_1" data-name="Capa 1" xmlns="http://www.w3.org/2000/svg" viewBox="0 0 123.3 130"><defs><style>.cls-1{fill:#b92323;}</style></defs><title>Maker</title><g id="Grupo_407" data-name="Grupo 407"><path id="Trazado_104" data-name="Trazado 104" class="cls-1" d="M171.4,129.7c-3.8-.8-6.4-3.1-9-5.7-5.3-5.5-10.8-10.9-16.2-16.3-1.5-1.5-1.6-1.9-.4-3.7a2.8,2.8,0,0,0-.6-3.7,2.9,2.9,0,0,0-3.1,0c-1.8,1.2-2.2,1.1-3.8-.4l-2.6-2.5c-1.4-1.5-1.5-2-.4-3.9l-3-2.7c-2-2-2-2.5.1-4.8a10.1,10.1,0,0,1-1.3-.9L94.4,48.6l-1-1.1a1.8,1.8,0,0,1,.1-2.5,1.9,1.9,0,0,1,2.6-.2h0l1,.9,36.8,36.6,1.1,1,3.3-3.4-1-1L91.5,33.5A7.4,7.4,0,0,1,89,28.3c-.1-1.2-.4-2.3-.5-3.5a1.7,1.7,0,0,0-1.2-1.7l-10-4.9-4,4.1a1.1,1.1,0,0,0-.1,1.1c1.5,3.2,3.1,6.4,4.8,9.5a2,2,0,0,0,1.3.9l5.8.8a5.6,5.6,0,0,1,1.7.9l5.3,5.3c1.1,1.1,1.2,2.2.3,3s-2,.8-3-.3-2.6-2.4-3.8-3.7A4.9,4.9,0,0,0,82,38.1l-5-.7a2.6,2.6,0,0,1-2-1.5c-2-4.1-4.1-8.3-6.2-12.4a2.2,2.2,0,0,1,.5-2.7l6.1-6.1a2.3,2.3,0,0,1,2.8-.5l12.4,6.2a2.8,2.8,0,0,1,1.6,2.3c.3,2,.5,4,.8,6a2.1,2.1,0,0,0,.7,1.3l47.2,47.1.3.2.6-.6c1.2-1,2.1-1.1,3.2,0l3.5,3.6c2.1-1,2.4-.9,4,.7l2.4,2.4c1.6,1.5,1.6,2,.4,3.8a2.6,2.6,0,0,0,0,2.9,2.4,2.4,0,0,0,2.8,1.1l1.3-.7a2,2,0,0,1,2.8.2h0l11.1,11a2.1,2.1,0,0,1,.3,2.8h-.2a1.9,1.9,0,0,1-2.8-.1h-.1l-9.1-9a1.6,1.6,0,0,0-2-.6,6.4,6.4,0,0,1-8.2-7.9,1.6,1.6,0,0,0-.7-2.3h-.1l-11,11a2,2,0,0,0,2.6.7,6.2,6.2,0,0,1,6.4,1.8,6,6,0,0,1,1.4,6.4,1.4,1.4,0,0,0,.4,1.8l17.1,17c4.1,4.1,10.5,3.2,12.9-1.8a7.5,7.5,0,0,0-1-8.2c-1-1.2-2.2-2.3-3.3-3.4s-1.1-2.2-.3-3,2-.9,3.1.2a35,35,0,0,1,4.4,5c4.2,7,.5,15.5-7.5,17.4l-.7.3ZM143.5,80.8l-7.7,7.7,2.1,2.2,7.8-7.7Z" transform="translate(-68.5 0.3)"/><path id="Trazado_105" data-name="Trazado 105" class="cls-1" d="M164.3,59.9l-2.4,2.7a2.3,2.3,0,0,1-3.5,0l-1.3-1.3-1-1.4-5.3,5.4L138.6,77.4c-.7.8-1.5,1.4-2.6,1a1.9,1.9,0,0,1-1.4-2.4,1.4,1.4,0,0,1,.2-.6l1.1-1.2,15.9-15.9,1.1-.8-8.1-8.1a5.9,5.9,0,0,0-.8.8l-16.1,16a5.2,5.2,0,0,1-1.1,1,1.9,1.9,0,0,1-2.7-.4,2,2,0,0,1-.1-2.6l.9-1,16-15.9,1.2-1.3-2.5-2.2a2,2,0,0,1-.3-2.7c1.5-2.7,1.2-4.8-.9-7a5.3,5.3,0,0,0-7-1,2,2,0,0,1-2.7-.3c-3.1-3-6.2-6.1-9.2-9.2-1-1-.9-2.1.2-3.2L126,14,139.1,1c1.7-1.7,2.5-1.7,4.2,0l8.1,8.1c1.5,1.4,1.5,2.1.4,3.8s-.5,4.8,1.6,6.6,4.1,2.1,6.8.7a2.2,2.2,0,0,1,2.9.6l7.3,7.2,10.8,10.8c1.8,1.8,1.8,2.7,0,4.5L179.3,45l3.3,3.1c1.3,1.2,1.4,2.5.5,3.4s-2.2.9-3.4-.4l-3-3.1-9,9.1A72.8,72.8,0,0,1,186,77.9a21.8,21.8,0,0,0,1.5-8,24.1,24.1,0,0,0-2.7-11.8c-1-2.1-.9-3.3.4-4s2.4.1,3.4,2a28.4,28.4,0,0,1,1.3,23.5c-.5,1.3-1.2,2.5-1.7,3.7s-1.2,1.8-2.2,1.5a3,3,0,0,1-2-1.5,61.3,61.3,0,0,0-8.2-12.5A59.5,59.5,0,0,0,164.3,59.9ZM144.7,42.5,160.2,58l16.9-17L161.7,25.6Zm2.5-31.4-6-6-16.9,17,5.9,5.9Zm-2.9,25,10.9-10.9a11.5,11.5,0,0,1-7.9-7.4L136.9,28.3a11.4,11.4,0,0,1,7.4,7.8Z" transform="translate(-68.5 0.3)"/><path id="Trazado_106" data-name="Trazado 106" class="cls-1" d="M123.7,89.3,112,77.7l-.8,1.2L89,101.1l-1.2,1.1a2.2,2.2,0,0,1-2.9-.6,2.3,2.3,0,0,1,.1-2.4l.8-.9L109,75.1a4.4,4.4,0,0,1,4.4-1.5,1.2,1.2,0,0,0,1-.4l3.5-3.5c1.2-1.1,2.3-1.2,3.3-.2s.8,2.1-.3,3.2l-3.8,3.7,8.1,8.1,3.7-3.8a2.1,2.1,0,0,1,2.7-.7,2,2,0,0,1,.9,2.8,1.8,1.8,0,0,1-.5.7c-1.1,1.2-2.4,2.3-3.5,3.6a1.8,1.8,0,0,0-.5,1.2,4.6,4.6,0,0,1-1.5,4.3l-21.7,21.6L93.5,125.5a12.2,12.2,0,0,1-15.4,2.1c-6.1-3.4-7.8-12.4-3.5-17.8a66.3,66.3,0,0,1,5.2-5.4,2,2,0,0,1,2.9-.2h.1a1.9,1.9,0,0,1,.1,2.8.2.2,0,0,1-.2.2l-4,4.1c-4.2,4.7-2.4,11.8,3.6,13.5a7.5,7.5,0,0,0,6.9-1.3,8.8,8.8,0,0,0,1.5-1.2l32.2-32.2Z" transform="translate(-68.5 0.3)"/></g></svg>