<svg id="Capa_1" data-name="Capa 1" xmlns="http://www.w3.org/2000/svg" viewBox="0 0 27 27"><defs><style>.cls-1{fill:#b92323;}</style></defs><title>Instagram</title><path id="Trazado_107" data-name="Trazado 107" class="cls-1" d="M55.2,43.2h5.4a6,6,0,0,1,4.1,1.4,6.3,6.3,0,0,1,1.5,4.1V59.7a6.1,6.1,0,0,1-1.5,4.1,5.6,5.6,0,0,1-4.1,1.4H49.7a5.3,5.3,0,0,1-4-1.4,6.1,6.1,0,0,1-1.5-4.1c-.1-1.4-.1-1.8-.1-5.4s0-4.1.1-5.5a6.3,6.3,0,0,1,1.5-4.1,5.8,5.8,0,0,1,4-1.4h5.5m0-2.4H49.6A8.7,8.7,0,0,0,43.9,43a8.1,8.1,0,0,0-2.1,5.7c-.1,1.4-.1,1.9-.1,5.6s0,4.1.1,5.5a8.1,8.1,0,0,0,2.1,5.7,8.7,8.7,0,0,0,5.7,2.2H60.7a8.5,8.5,0,0,0,5.7-2.2,8.7,8.7,0,0,0,2.2-5.7c.1-1.4.1-1.9.1-5.5s0-4.2-.1-5.6A8.7,8.7,0,0,0,66.4,43a8.5,8.5,0,0,0-5.7-2.2Z" transform="translate(-41.7 -40.8)"/><path id="Trazado_108" data-name="Trazado 108" class="cls-1" d="M55.2,46.6a7.7,7.7,0,1,0,7.6,7.7,7.6,7.6,0,0,0-7.6-7.7Zm0,12.6a5,5,0,1,1,4.9-4.9,4.9,4.9,0,0,1-4.9,4.9Z" transform="translate(-41.7 -40.8)"/><circle id="Elipse_325" data-name="Elipse 325" class="cls-1" cx="20.8" cy="6.2" r="1.4"/></svg>