<svg id="Capa_1" data-name="Capa 1" xmlns="http://www.w3.org/2000/svg" viewBox="0 0 150 150"><defs><style>.cls-1{fill:#b92323;}</style></defs><title>lightbulb</title><g id="Grupo_410" data-name="Grupo 410"><path id="Trazado_70" data-name="Trazado 70" class="cls-1" d="M61.1-9.6a12.3,12.3,0,0,1,1.4,3.1c.5,2,.6,4.2,1,6.3A2,2,0,0,0,64.4.9l5,2.1a2.2,2.2,0,0,0,1.4-.2l5.6-4.2c1.5-1.1,2.3-1.1,3.6.2S85.3,4,87.9,6.7s1.3,2.1.2,3.6L84,15.7a1.5,1.5,0,0,0-.2,1.9A34.3,34.3,0,0,1,85.7,22a1.6,1.6,0,0,0,1.5,1.3c4.7.7,9.3,1.2,14,2.2A34,34,0,0,1,112.9,31a4.9,4.9,0,0,1,5.9-2,2,2,0,0,1,1.7,2.1,2.1,2.1,0,0,1-1.7,2.2l-2.6.2c1.6,1.7,3.1,3.2,4.5,4.9s2.4,3.3,3.5,5.1a2.3,2.3,0,0,1-.3,3.1l-.3.2c-1.2.8-2.4.4-3.3-1.1A33.3,33.3,0,0,0,103.4,31c-20-8.1-42.7,4.3-46.3,25.6-1.9,11.5,1.2,21.6,9.4,30.1a46.1,46.1,0,0,1,8.1,10.9c2,3.8,2.2,8,2.4,12.2v1.1l.2.4h6c.1-2.4.4-4.9.4-7.3,0-4.9-.1-9.9-.2-14.9,0-1.2-.4-1.8-1.8-2.1a26.4,26.4,0,0,1-6.2-2,7.8,7.8,0,0,1-4.1-8.9,5.7,5.7,0,0,1,6.8-4.4,8.4,8.4,0,0,1,6.8,4.8,36.9,36.9,0,0,1,1.9,5.6c.3,1,.7,1.3,1.6,1.3s3.8,0,5.7,0c.5-1.9,1-3.7,1.6-5.4a9.5,9.5,0,0,1,5.7-5.9c2.6-.8,5-.9,7,1.1s2.3,4.5,1.5,7.2a8.2,8.2,0,0,1-5.3,5.3c-2.1.7-4.3,1.2-6.7,1.9v23.7h6.3a24.5,24.5,0,0,0,.2-2.7c-.2-7.5,3-13.5,7.7-18.9,1.9-2.3,4-4.3,5.8-6.6,6.4-8.6,8.2-18.2,5.9-28.7a2.4,2.4,0,0,1-.2-.8,2.3,2.3,0,0,1,1.7-2.7,2,2,0,0,1,2.5,1.5.3.3,0,0,1,.1.2q.8,4.4,1.2,8.7c.1.9.2,1.5,1.3,1.9a3,3,0,0,1,1.6,1.9,1.9,1.9,0,0,1-1.6,2.2l-1.5.3a38.7,38.7,0,0,1-9.6,20.9l3.2,2.3c.3.2,1-.1,1.5-.2,2.2-.3,2.7-1.9,2.8-3.8.4-3.9.7-4.1,4.6-4.1h5.7a2.2,2.2,0,0,1,2.5,1.9v.3a6.3,6.3,0,0,1,.3,1.9c0,2,.6,3.3,2.8,3.9s1.5.4,2.3-.3l2.8-2.2a2.3,2.3,0,0,1,3.2.1.1.1,0,0,0,.1.1l5.4,5.4a2.2,2.2,0,0,1,.2,3.1h0a31.5,31.5,0,0,1-2.2,2.9,2.3,2.3,0,0,0-.3,2.3c.6,2.2,2,2.9,4,2.8a6.4,6.4,0,0,1,2,.3,2.2,2.2,0,0,1,2,2.3v7.8a2.2,2.2,0,0,1-2.1,2.4H160c-1.3.2-2.6.3-3.9.6a2.3,2.3,0,0,0-1.2,1c-1.4,2-1,3.7.7,5.3a6.4,6.4,0,0,1,1,1.3,2.2,2.2,0,0,1,0,3.2c-.1,0-.1.1-.2.2l-5.3,5.2a2.2,2.2,0,0,1-3.2.3h-.1l-1.5-1.2c-1.5-1.5-3-1.9-4.9-.7s-1.2.6-1.3,1.5a24.7,24.7,0,0,1-.5,3.8,2.2,2.2,0,0,1-2.3,2.1h-7.8a2.2,2.2,0,0,1-2.4-2,7.5,7.5,0,0,1-.3-2c.1-2.1-.6-3.5-2.8-4a2.2,2.2,0,0,0-2.2.3l-2.9,2.2a2.5,2.5,0,0,1-3.3-.2h0l-5.3-5.3c-1.1-1.1-1.1-2-.2-3.3a19.5,19.5,0,0,1,1.7-2.3,2.5,2.5,0,0,0,.4-3.4c-1-2-.9-2-3.3-2.1-.1,1.3-.1,2.6-.3,3.9a9.7,9.7,0,0,1-6.7,8.4,1.8,1.8,0,0,0-1.5,1.5A10.2,10.2,0,0,1,81,132a2.3,2.3,0,0,0-1.5-1.5,10,10,0,0,1-6.9-9.7c-.1-4.3-.3-8.7-.2-13s-2.1-9.6-5.3-13.6a40,40,0,0,0-3.8-4.4,38,38,0,0,1-8.9-14.1,1.5,1.5,0,0,0-1.7-1.2H48.6A2.3,2.3,0,0,1,46,72.6v-.4c-.4-2.2-.6-4.5-1-6.8A2.6,2.6,0,0,0,43.9,64l-4.6-1.9a1.5,1.5,0,0,0-1.8.1l-5.3,4.1c-1.7,1.2-2.5,1.1-3.9-.2l-7.6-7.7c-1.4-1.4-1.4-2.2-.3-3.7l4-5.4a1.4,1.4,0,0,0,.3-1.9,25.3,25.3,0,0,1-1.9-4.5,1.5,1.5,0,0,0-1.5-1.2c-2.3-.3-4.5-.5-6.8-1a10.5,10.5,0,0,1-2.3-1.3V25.6a8.9,8.9,0,0,1,2.5-1.4l6.7-1a1.8,1.8,0,0,0,1.3-1.1c.8-1.5,1.3-3.1,2-4.6a1.2,1.2,0,0,0-.2-1.7l-4.2-5.6c-1-1.4-1-2.3.2-3.5l8-8c1.2-1.2,2-1.2,3.5-.2S35.1.8,36.5,2s2.3,1.4,3.8.4L43.9.9A2,2,0,0,0,45-.2c.4-2.2.5-4.4,1-6.5a11.1,11.1,0,0,1,1.4-2.9ZM54.7,48.5h-1a17.7,17.7,0,0,1-16.8-17,2.4,2.4,0,0,1,2-2.7H39c1.4-.1,2.3.9,2.5,2.5v.6c.3,7.1,7.1,13,14.1,12.1a3.4,3.4,0,0,0,2-1.3,35.6,35.6,0,0,1,8-9.3c1.9-1.5,2-3.1,1.5-5-1.3-5.4-4.6-8.9-10-10.1s-9.8.8-13.2,5.1l-.7.9a2.3,2.3,0,0,1-3-.1c-.9-.8-1-2,0-3.3,4-5.4,9.4-8,16.1-7.2s11.9,4.8,14.5,11.4a32.1,32.1,0,0,1,1,3.5L82,24.7a54.4,54.4,0,0,0-3-6.5,3,3,0,0,1,.3-3.6c1.5-1.9,2.9-3.9,4.2-5.7L77.8,3.1,72,7.5a2.7,2.7,0,0,1-3.3.2c-2.4-1.1-4.8-2-7.3-3a2.9,2.9,0,0,1-2.1-2.5c-.3-2.4-.7-4.9-1.1-7.3h-8c-.3,2.4-.8,4.8-1,7.2a3.1,3.1,0,0,1-2.4,2.7,60.7,60.7,0,0,0-7,2.9,2.9,2.9,0,0,1-3.5-.3c-1.8-1.5-3.8-2.9-5.7-4.3L24.9,8.8c1.4,2,2.9,4,4.4,5.9a2.6,2.6,0,0,1,.3,3.1c-1.2,2.5-2.1,5-3.1,7.6a2.8,2.8,0,0,1-2.4,2l-7.5,1.1c0,2.4,0,4.8.1,7.2,0,.4.6.9,1.1,1l6.2.9a2.6,2.6,0,0,1,2.5,2.2c.9,2.4,1.9,4.8,3,7.1a2.9,2.9,0,0,1-.3,3.5l-4.3,5.7,5.7,5.7,5.9-4.4a2.9,2.9,0,0,1,3.1-.3c2.5,1.2,5,2.2,7.5,3.2a2.5,2.5,0,0,1,2,2.4c.3,2.4.7,4.9,1.1,7.4h2.6a39.5,39.5,0,0,1,1.9-21.5Zm54.2,61v3c-.1.9.2,1.2,1.1,1.3s2.1.3,3.2.4a2.7,2.7,0,0,1,2.3,2.1c.6,1.5,1.2,3.1,1.9,4.5a2.9,2.9,0,0,1-.2,3.2c-.9,1.1-1.7,2.2-2.4,3.2l2.8,3,3.4-2.5a2.6,2.6,0,0,1,3-.3,11.7,11.7,0,0,0,3.8,1.7c2.3.5,2.9,1.8,3.1,3.8s.3,3.3,3.6,3.1c.7,0,1-.2,1.1-1s.3-2.2.4-3.3a2.5,2.5,0,0,1,2.1-2.3c1.5-.6,3.1-1.2,4.5-1.9a2.7,2.7,0,0,1,3.1.2l3.3,2.5,3-2.9c-.9-1.1-1.7-2.3-2.5-3.4a2.4,2.4,0,0,1-.3-3,48.9,48.9,0,0,0,2-4.8,2.5,2.5,0,0,1,2.1-1.8l3.6-.6a1.1,1.1,0,0,0,.8-.8,19,19,0,0,0,.1-3.4l-4.5-.7a2.3,2.3,0,0,1-2.1-1.9c-.6-1.6-1.2-3.1-1.9-4.7a2.4,2.4,0,0,1,.2-3.1c.9-1.1,1.7-2.2,2.4-3.2l-2.8-3.1-1.7,1.3-1.7,1.3a2.6,2.6,0,0,1-3,.2c-1.3-.6-2.5-1.2-3.9-1.7s-2.7-1-3-3.6-.3-3.5-3.7-3.2a1.4,1.4,0,0,0-.9.9,19.7,19.7,0,0,0-.5,3.5,2.7,2.7,0,0,1-2,2.2,37.1,37.1,0,0,0-4.6,1.9,2.9,2.9,0,0,1-3.3-.3l-3.2-2.4-3,2.8,2.6,3.5a2.7,2.7,0,0,1,.3,3,39,39,0,0,0-2,4.7,2.5,2.5,0,0,1-2.2,1.9l-4.4.7Zm-4.7,6.4H77v4.4c0,4,2.3,6.2,6.3,6.2H97.8a6.6,6.6,0,0,0,2-.1,5.5,5.5,0,0,0,4.4-4.7c.1-1.9,0-3.8,0-5.8ZM88,88v23.3h5.4V88Zm-6-5.2.5-.5a48.1,48.1,0,0,0-2.2-4.6,3.4,3.4,0,0,0-3.6-1.5,1.9,1.9,0,0,0-1.1,1.4,3.4,3.4,0,0,0,1.9,3.5L82,82.8Zm16.9-.4.3.4c1.5-.6,3-1,4.5-1.7a3.4,3.4,0,0,0,2.1-3.1c0-1.6-.7-2.1-2.3-1.8a4,4,0,0,0-3,2.2c-.6,1.3-1.1,2.7-1.6,4ZM85.6,131.1c1,2.4,3,3.5,5.9,3.2a4.5,4.5,0,0,0,4.1-3.3h-10ZM109,104.7c3.1.7,3.1-1.7,3.6-3.2s-.6-1.8-1-2.7h-.7Z" transform="translate(-12.2 9.6)"/><path id="Trazado_71" data-name="Trazado 71" class="cls-1" d="M127,33.7l-1.9-.2a2.2,2.2,0,0,1-2-2.4,2.1,2.1,0,0,1,1.9-2.2,12.7,12.7,0,0,1,3.9,0,2.1,2.1,0,0,1,2,2.3h0a2.2,2.2,0,0,1-1.9,2.3Z" transform="translate(-12.2 9.6)"/><path id="Trazado_72" data-name="Trazado 72" class="cls-1" d="M135.6,33.7l-1.9-.2a2.2,2.2,0,0,1-1.8-2.4,2,2,0,0,1,1.9-2.2h0a15.4,15.4,0,0,1,4.3.2,2.1,2.1,0,0,1,1.6,2.4,2.4,2.4,0,0,1-2.1,2.2Z" transform="translate(-12.2 9.6)"/><path id="Trazado_73" data-name="Trazado 73" class="cls-1" d="M137.4,62.7l1.1-.2a2.2,2.2,0,0,1,2.4,1.9,2,2,0,0,1-1.4,2.6h-.1a13.6,13.6,0,0,1-4,.4,2.4,2.4,0,0,1-2.2-2.5,2.4,2.4,0,0,1,1.9-2.1,16,16,0,0,1,2.3-.3Z" transform="translate(-12.2 9.6)"/><path id="Trazado_74" data-name="Trazado 74" class="cls-1" d="M152.7,56.5c-1.8,0-2.9-1.2-2.6-2.7a21.1,21.1,0,0,1,.9-3.6,2.1,2.1,0,0,1,2.7-1.3,2.1,2.1,0,0,1,1.8,2.3h0a18.2,18.2,0,0,1-1.1,4C154,55.9,153.1,56.2,152.7,56.5Z" transform="translate(-12.2 9.6)"/><path id="Trazado_75" data-name="Trazado 75" class="cls-1" d="M149.6,35.4a2.4,2.4,0,0,1-2.3,2.4,2.7,2.7,0,0,1-1.2-.3,12.9,12.9,0,0,1-3-2.2,3.4,3.4,0,0,1-.5-2.6,1.8,1.8,0,0,1,2-1.5l.4.2a26.1,26.1,0,0,1,4.3,3.1C149.5,34.6,149.5,35.1,149.6,35.4Z" transform="translate(-12.2 9.6)"/><path id="Trazado_76" data-name="Trazado 76" class="cls-1" d="M155.6,44.3c-.8.7-1.3,1.7-2.2,2a2,2,0,0,1-2.6-1.2h-.1l-1.2-3.4a2.3,2.3,0,0,1,1.3-2.7,2.1,2.1,0,0,1,2.8.6A47.3,47.3,0,0,1,155.6,44.3Z" transform="translate(-12.2 9.6)"/><path id="Trazado_77" data-name="Trazado 77" class="cls-1" d="M25,102.1c.1-2.1,2-3.1,3.5-2.2a16.6,16.6,0,0,1,3,2.2,2.3,2.3,0,0,1,.4,2.9,2.1,2.1,0,0,1-2.7,1,24.7,24.7,0,0,1-3.8-2.8C25.1,102.9,25.1,102.3,25,102.1Z" transform="translate(-12.2 9.6)"/><path id="Trazado_78" data-name="Trazado 78" class="cls-1" d="M36.7,74.9a2.5,2.5,0,0,1-2.8-2h0A2.3,2.3,0,0,1,36,70.3h.2l3.2-.2a2.4,2.4,0,0,1,2.4,2.2,2.3,2.3,0,0,1-2.2,2.4l-2.4.3Z" transform="translate(-12.2 9.6)"/><path id="Trazado_79" data-name="Trazado 79" class="cls-1" d="M31.5,75.6a4.7,4.7,0,0,1-.7,1.2A20.9,20.9,0,0,1,28,79.2a2.1,2.1,0,0,1-2.9-.3H25a2.3,2.3,0,0,1-.2-3.1h.1a11.4,11.4,0,0,1,3.2-2.6C29.6,72.3,31.5,73.6,31.5,75.6Z" transform="translate(-12.2 9.6)"/><path id="Trazado_80" data-name="Trazado 80" class="cls-1" d="M145.3,64.5c-.3-.3-1.3-.8-1.6-1.5a3.3,3.3,0,0,1,.5-2.5,9.6,9.6,0,0,1,2.6-2.3,2.4,2.4,0,0,1,3.7,2.1C150.5,61.7,147.2,64.4,145.3,64.5Z" transform="translate(-12.2 9.6)"/><path id="Trazado_81" data-name="Trazado 81" class="cls-1" d="M22.1,90.9c1.2,0,1.9,1,2.2,2.3s1.8,3.3-.2,4.9a2.2,2.2,0,0,1-3-.3c0-.1-.1-.1-.1-.2a16.9,16.9,0,0,1-1.5-4.3C19.2,92,20.4,90.9,22.1,90.9Z" transform="translate(-12.2 9.6)"/><path id="Trazado_82" data-name="Trazado 82" class="cls-1" d="M38.8,108.6h-2a2.4,2.4,0,0,1-2-2.5,2.2,2.2,0,0,1,2.2-2.2h3a2.4,2.4,0,0,1,2.6,2.3h0c0,1.4-1,2.3-2.7,2.4H38.8Z" transform="translate(-12.2 9.6)"/><path id="Trazado_83" data-name="Trazado 83" class="cls-1" d="M47.7,103.9h1.7a2.3,2.3,0,0,1,2,2.4,2.1,2.1,0,0,1-1.9,2.3h-.1a24.1,24.1,0,0,1-3.8,0,2.1,2.1,0,0,1-2-2.2h0a2.3,2.3,0,0,1,2-2.4Z" transform="translate(-12.2 9.6)"/><path id="Trazado_84" data-name="Trazado 84" class="cls-1" d="M57.8,103.9h1.7a2.5,2.5,0,0,1,2.2,2.5,2.2,2.2,0,0,1-2.2,2.2,19.3,19.3,0,0,1-3.4,0,2.3,2.3,0,0,1-2.3-2.4h0a2.5,2.5,0,0,1,2.5-2.3Z" transform="translate(-12.2 9.6)"/><path id="Trazado_85" data-name="Trazado 85" class="cls-1" d="M22.2,88.5c-2,0-3.2-1.2-2.9-2.6a16.1,16.1,0,0,1,1-3.6,2.2,2.2,0,0,1,3-1.3,2.4,2.4,0,0,1,1.4,2.6,11,11,0,0,1-1,3.4A5.4,5.4,0,0,1,22.2,88.5Z" transform="translate(-12.2 9.6)"/><path id="Trazado_86" data-name="Trazado 86" class="cls-1" d="M68,103.9h1.7a2.5,2.5,0,0,1,2.2,2.5,2.1,2.1,0,0,1-2.1,2.2,19.3,19.3,0,0,1-3.4,0,2.3,2.3,0,0,1-2.4-2.3h0a2.5,2.5,0,0,1,2.5-2.3Z" transform="translate(-12.2 9.6)"/><path id="Trazado_87" data-name="Trazado 87" class="cls-1" d="M140.4,109.7a8.8,8.8,0,0,0-8.5-9,9,9,0,0,0-9.4,8.3,4.2,4.2,0,0,1-1.4,2.7c-1.6,1.1-3.5-.3-3.4-2.5a13.8,13.8,0,0,1,27.3-2.4,14,14,0,0,1-10.4,16.3,13.6,13.6,0,0,1-11.8-2.7,2.6,2.6,0,0,1-.8-3.6c.9-1.2,2.3-1.3,3.7-.2a8.9,8.9,0,0,0,14.7-6.9Z" transform="translate(-12.2 9.6)"/></g></svg>