<?xml version="1.0" encoding="utf-8"?>
<!-- Generator: Adobe Illustrator 24.0.1, SVG Export Plug-In . SVG Version: 6.00 Build 0)  -->
<svg version="1.1" id="Capa_1" xmlns="http://www.w3.org/2000/svg" xmlns:xlink="http://www.w3.org/1999/xlink" x="0px" y="0px"
	 viewBox="0 0 1080 1080" style="enable-background:new 0 0 1080 1080;" xml:space="preserve">
<style type="text/css">
	.st0{fill:#484848;}
</style>
<path id="pencil_3917376" class="st0" d="M562.56,534.1c-0.8-0.8-2.1-0.8-2.9,0l-9.22,9.22c-0.53,0.53-0.83,1.25-0.83,2v1.16
	c0,0.31,0.25,0.57,0.57,0.57c0,0,0,0,0,0h1.16c0.75,0,1.47-0.3,2-0.83l9.22-9.22C563.35,536.2,563.35,534.9,562.56,534.1
	L562.56,534.1z M552.54,545.42c-0.32,0.32-0.75,0.5-1.2,0.5h-0.6v-0.6c0-0.45,0.18-0.88,0.5-1.2l7-7l1.3,1.3L552.54,545.42z
	 M561.76,536.2l-1.42,1.42l-1.3-1.3l1.42-1.42c0.34-0.38,0.92-0.42,1.3-0.08c0.38,0.34,0.42,0.92,0.08,1.3
	C561.81,536.15,561.78,536.17,561.76,536.2L561.76,536.2z"/>
</svg>
