<svg id="Capa_1" data-name="Capa 1" xmlns="http://www.w3.org/2000/svg" viewBox="0 0 119.9 119.9"><defs><style>.cls-1{fill:#b92323;}</style></defs><title>Escuadra</title><g id="Grupo_412" data-name="Grupo 412"><g id="Grupo_409" data-name="Grupo 409"><path id="Trazado_102" data-name="Trazado 102" class="cls-1" d="M70.6,97.1c1-2.3,2.7-3.1,5.2-3.1h83.3V10.1c0-2.3,1-3.8,2.9-4.4l1.3-.2h23a4,4,0,0,1,4.2,3.9V80.5c0,1-.3,1.8-1.3,2a1.6,1.6,0,0,1-2.1-.9,3.8,3.8,0,0,1-.1-1.5V10.9C187,9,187,9,185.1,9H164.3c-1.6,0-1.6,0-1.6,1.6v9.7h8.2c1.3,0,2,.7,2,1.8a1.8,1.8,0,0,1-1.7,1.7h-8.5V35H178a1.8,1.8,0,0,1,1.9,1.4,1.6,1.6,0,0,1-.9,1.9,2.3,2.3,0,0,1-1.4.2H162.8V49.8h7.9c1.5,0,2.2.6,2.2,1.8s-.7,1.7-2.1,1.7h-8.1V64.5H178a1.7,1.7,0,0,1,1.9,1.6,1.7,1.7,0,0,1-1.6,1.9H162.8V79.3h7.8a2.5,2.5,0,0,1,1.2.1,1.6,1.6,0,0,1,1.1,1.9,1.6,1.6,0,0,1-1.7,1.5h-8.5V94h15.1c1.3,0,2.1.6,2.1,1.7a1.8,1.8,0,0,1-1.5,1.9H162.7v15.1c0,1.1-.4,1.9-1.5,2.1s-2.1-.6-2.1-2V97.6H147.9v8.3a1.7,1.7,0,0,1-1.5,1.9h-.3a1.7,1.7,0,0,1-1.7-1.7v-.2c-.1-2.3,0-4.6,0-6.9V97.6H133.2c0,.5-.1.9-.1,1.3v13.7c0,1.5-.6,2.3-1.7,2.2s-1.8-.7-1.8-2.2V97.7H118.4v8q0,2.1-1.8,2.1c-1.1,0-1.7-.7-1.7-2.1s0-5.3,0-8H103.6v15c0,1.4-.6,2.1-1.7,2.1s-1.8-.7-1.8-2.2v-15H88.9v6.7a10.9,10.9,0,0,1-.1,1.8,1.8,1.8,0,0,1-1.7,1.7,1.8,1.8,0,0,1-1.8-1.8V97.7h-10c-.8,0-1.2.1-1.2,1.1v22.1a1,1,0,0,0,1.1,1.1h110c1.8,0,1.8,0,1.8-1.8V88.8a1.7,1.7,0,0,1,1.9-1.5,1.7,1.7,0,0,1,1.6,1.5v1.1c0,10.1-.1,20.2,0,30.3,0,2.5-.8,4.2-3.1,5.2H73.6a5.4,5.4,0,0,1-3-3.1Z" transform="translate(-70.6 -5.5)"/><path id="Trazado_103" data-name="Trazado 103" class="cls-1" d="M70.6,82.9c.5-2.5,1.1-5.1,1.6-7.6s1.3-6.4,1.9-9.6a2.3,2.3,0,0,1,.6-1.2L98.9,40.3a1.7,1.7,0,0,1,2.4-.2l.2.2a1.8,1.8,0,0,1-.2,2.6c-.1.2-.3.3-.5.5L79.5,64.7a3.9,3.9,0,0,1-1,.8l14,14,45.6-45.6L124,19.9a2.2,2.2,0,0,1-.5.8L107.9,36.4a3.9,3.9,0,0,1-1,.8,1.6,1.6,0,0,1-2.2-.3,1.5,1.5,0,0,1-.2-2.1,8.1,8.1,0,0,1,.9-1L131,8.2c3.7-3.7,8.1-3.7,11.8,0l7.4,7.4c3.6,3.6,3.6,8.1,0,11.7L94.4,83.1a5.3,5.3,0,0,1-2.9,1.4L75.1,87.7c-1.9.4-3.3-.5-4.5-2.7Zm56.5-65.7L141,31.1c2.5-2.4,5.1-4.7,7.5-7.2a4,4,0,0,0-.3-5.2c-2.8-2.9-5.6-5.7-8.6-8.6a3.8,3.8,0,0,0-5.4,0c-2.4,2.3-4.7,4.8-7.1,7.1ZM77,69.7,74.1,84.3l14.6-2.9Z" transform="translate(-70.6 -5.5)"/></g></g></svg>