<?xml version="1.0" encoding="utf-8"?>
<!-- Generator: Adobe Illustrator 24.0.1, SVG Export Plug-In . SVG Version: 6.00 Build 0)  -->
<svg version="1.1" id="Capa_1" xmlns="http://www.w3.org/2000/svg" xmlns:xlink="http://www.w3.org/1999/xlink" x="0px" y="0px"
	 viewBox="0 0 1080 1080" style="enable-background:new 0 0 1080 1080;" xml:space="preserve">
<g id="Grupo_580" transform="translate(-1178.848 -343.474)">
	<path id="Trazado_118" d="M1763.5,992.3c-0.5-0.2-1-0.5-1.5-0.7c-5.1-2-7.6-7.7-5.6-12.7c0.1-0.3,0.3-0.7,0.5-1
		c0.4-0.9,0.9-1.7,1.6-2.9c-0.8,0.2-1.3,0.4-1.7,0.5c-14.1,6-29.5,8.7-44.9,7.6c-2.8-0.2-4.3-1.3-4.2-3.3c0.1-2.1,1.7-3.2,4.7-3
		c16.7,1.1,33.4-2.4,48.3-10.1c2.5-1.2,4.6-3.1,5.9-5.6c4.7-8.6,9.7-17,14.6-25.5c4.1-7,9.4-8.4,16.6-3.9c2.1-4.5,4.4-8.7,6.1-13.3
		c10.2-26.9,8.4-53.1-5.1-78.6c-1.4-2.7-4.2-3.2-6.6-4.5c-0.4-0.2-1.2,0.3-1.7,0.6c-3.7,1.9-7.3,3.8-11,5.8
		c-2.8,1.5-5.5,1.6-8.1-0.3c-2.6-1.9-3.3-4.5-2.7-7.6c0.8-4,1.5-8.1,2.1-12.2c0.1-1-0.3-2-0.9-2.7c-2.6-2.7-5.2-5.3-8-7.8
		s-4.4-5.2-3.1-9.1c-6.7-3.4-13.9-5.9-21.2-7.4c-19.9-4.3-40.7-2-59.2,6.8c-1.6,0.8-2.2,1.5-1.8,3.5c4.3,22.7-16.3,43.1-38.9,38.5
		c-1.5-0.3-2.2-0.1-2.9,1.4c-12.3,27-12.2,54,0.4,80.9c0.4,1.2,1.6,1.9,2.9,1.7c7.8-0.1,15.7,0,23.5,0c8.8,0,13.8,5,13.8,13.8
		c0,7.9,0,15.8,0,23.7c-0.2,1.2,0.5,2.4,1.7,2.7c6.1,2.2,12.2,4.5,18.3,6.7c0.5,0.2,0.9,0.2,1.4,0.4c2.2,0.6,3.2,2.1,2.7,4
		c-0.4,1.6-2.1,2.6-3.8,2.2c-0.1,0-0.3-0.1-0.4-0.1c-5.9-1.9-11.8-3.9-17.6-5.9c-0.6-0.2-1.3-0.5-2.2-0.9c0,1.4,0,2.5,0,3.7
		c-0.1,7.7-5.3,13-12.9,13c-12.5,0.1-24.9,0.1-37.4,0c-7.7,0-12.9-5.3-12.9-13c0-12.4,0-24.8,0-37.2c0-7.7,5.2-12.9,12.9-13.1
		c1.2,0,2.4,0,3.9,0c-13-27.3-12.8-59.1,0.6-86.3c-2.2-1.5-4.4-2.7-6.3-4.2c-6.8-5.2-11.3-12.9-12.4-21.4c-0.1-0.4-0.2-0.8-0.4-1.2
		v-7.1c0.1-0.6,0.3-1.2,0.4-1.8c0.7-4.6,2.4-8.9,5-12.8c0.7-1.4,2.3-2,3.8-1.4c1.4,0.4,2.3,1.8,2.1,3.3c-0.2,0.9-0.6,1.7-1.1,2.4
		c-7.6,12.9-3.4,29.5,9.5,37.2c3.6,2.2,7.7,3.4,11.9,3.7c12.1,1,23.9-7,27.7-18.9c3.8-12-1.2-25-12-31.4c-8.6-5-17.4-5.1-26.3-0.7
		c-1.5,0.7-2.9,1.2-4.3,0c-1.9-1.6-1.3-4.2,1.2-5.6c13.8-7.3,30.9-4,40.9,8c1.9,2.2,3.4,4.8,5.1,7.2c0.3-0.1,0.7-0.3,1.1-0.4
		c29.3-13.4,58.5-13,87.5,1.1c0.9,0.4,1.8,0.6,2.8,0.5c3.9-0.5,7.8-1,11.6-1.7c1-0.2,1.9-0.9,2.5-1.8c1.9-3.4,3.6-7,5.2-10.5
		c1.4-3,3.5-5.1,7-5.1c3.5,0,5.6,2.1,7,5.1c1.7,3.5,3.4,7.1,5.2,10.5c0.5,0.8,1.3,1.4,2.3,1.7c4.1,0.7,8.2,1.2,12.2,1.8
		c3.1,0.4,5.4,1.9,6.4,5c1,3.1,0,5.6-2.2,7.8c-2.9,2.8-5.8,5.7-8.8,8.5c-1,0.8-1.4,2.1-1,3.3c0.8,4.2,1.5,8.4,2.2,12.6
		c0.6,3.8-1.9,7.5-5.8,8.1c-0.2,0-0.4,0.1-0.7,0.1c-0.4,0-0.9,0.1-1.4,0.2c0.2,0.5,0.3,0.8,0.5,1.2c13.4,31.7,11.6,62.4-5.9,92.1
		c-0.6,0.9-0.6,2.1,0.1,3c7.3,12.5,14.5,25,21.7,37.6c3.1,5.3,1.7,11.2-3.2,14c-1,0.5-2,0.9-3,1.3L1763.5,992.3z M1643.9,984.3
		c6.1,0,12.2,0,18.3,0c4.8,0,7.2-2.4,7.2-7.1c0-12.2,0-24.3,0-36.5c0-4.6-2.3-7.1-6.9-7.1c-12.2,0-24.5,0-36.7,0c-4.6,0-7,2.4-7,7
		c0,12.2,0,24.3,0,36.5c0,4.7,2.4,7.1,7.1,7.1C1631.9,984.3,1637.9,984.3,1643.9,984.3L1643.9,984.3z M1790.6,986
		c8.1,0,16.2,0,24.3,0c4,0,5.5-2.6,3.5-6.1c-8-13.9-16.1-27.8-24.1-41.7c-2.1-3.6-5.1-3.7-7.2-0.1c-8,13.9-16.1,27.8-24.1,41.7
		c-2.1,3.6-0.5,6.2,3.6,6.2C1774.7,986,1782.6,986,1790.6,986L1790.6,986z M1819.8,804.5c-0.6-0.3-1.2-0.5-1.8-0.6
		c-4-0.6-8-1.2-12-1.7c-3.2-0.2-6.1-2.2-7.3-5.1c-1.5-3.4-3.3-6.8-5-10.2c-0.5-0.7-1-1.4-1.6-2c-0.5,0.6-1,1.2-1.4,1.9
		c-1.7,3.4-3.5,6.7-5,10.2c-1.2,3-4,5-7.2,5.2c-4,0.5-7.9,1.1-11.8,1.7c-0.7,0.2-1.4,0.4-2.1,0.8c0.8,0.9,1.3,1.4,1.8,1.9
		c2.9,2.8,5.8,5.7,8.7,8.5c2,1.8,2.9,4.6,2.3,7.3c-0.7,4.1-1.4,8.3-2.1,12.4c0,0.6,0,1.2,0.1,1.8c0.6,0,1.2-0.1,1.7-0.3
		c3.5-1.8,7-3.5,10.4-5.5c2.8-1.8,6.5-1.9,9.3,0c3.4,2,7,3.7,10.6,5.6c0.5,0.2,1,0.3,1.6,0.3c0.2-0.6,0.2-1.1,0.2-1.7
		c-0.7-4.1-1.4-8.3-2.1-12.4c-0.6-2.7,0.3-5.6,2.3-7.4c2.9-2.8,5.8-5.7,8.7-8.5C1818.5,805.9,1819,805.3,1819.8,804.5z"/>
	<path id="Trazado_119" d="M1672.3,878.1l3.8,0.4c0-1.3,0-2.5,0-3.7c0-1.2,0.1-2.4,0.2-3.5c0.4-3.3,2.8-4.4,5.5-2.4
		c3.5,2.7,8.2,3.5,12.4,2.1c2.8-0.9,5.2-2.6,6.8-5c2.1-2.9,4.1-2.9,6.3,0c4.2,6,12.6,7.5,18.6,3.2c1.2-0.9,2.3-1.9,3.2-3.1
		c2.3-3.1,4.2-3.1,6.4-0.1c4.6,6.1,12.5,7.4,18.9,3c3.2-2.2,5.5-1.1,5.8,2.7c0.2,2.2,0,4.4,0,6.7l3.7-0.4c0-1.5,0-3,0-4.4
		c0.1-2.1,1.4-3.4,3.2-3.4c1.7,0,3.1,1.3,3.1,3c0,0.2,0,0.3,0,0.5c-0.4,3.8,0.6,6.3,4.1,8.6c5.6,3.7,7.5,11.2,5.4,17.5
		c-2,6.4-6.7,11.7-12.8,14.5c-2.2,1-4.8,1.3-7.6,2c-5.1,20-23.9,33.4-44.5,31.7c-18.2-1.5-33.4-14.4-37.7-32.1
		c-9.4-0.3-15.3-5.7-19.2-13.4c-4.3-8.4-1.2-17.7,7.2-22.3c0.9-0.4,1.4-1.4,1.2-2.3c0.1-6.1-0.1-12.2,0.5-18.3
		c2.1-21.5,20.2-40.3,41.8-44c28.5-4.8,54.5,12.3,60.6,40c0.2,0.9,0.4,1.8,0.5,2.7c0.2,1.7-0.9,3.2-2.6,3.5
		c-1.7,0.3-3.3-0.7-3.6-2.4c-0.6-2.1-0.9-4.4-1.5-6.5c-6.3-20.2-25.7-33.4-46.8-31.9c-21.1,1.4-38.6,17-41.9,37.7
		C1672.2,865.1,1672.5,871.6,1672.3,878.1z M1682.5,876.6c-0.1,0.3-0.1,0.6-0.2,0.9c0,10.1-0.3,20.3,0.1,30.4
		c0.7,19.1,16.4,34.2,35.6,34.1c18,0.1,34.2-13.4,35.5-30.7c0.9-11.3,0.3-22.7,0.4-34.1c0-0.1-0.1-0.2-0.3-0.5
		c-7.9,2.6-15.2,1.3-21.5-4.5c-3.7,3.8-8.8,5.9-14.1,5.8c-5.2,0-10.3-2.1-14-5.8C1697.7,877.9,1690.6,879.2,1682.5,876.6
		L1682.5,876.6z M1760.3,891c1.1-0.4,2.2-0.7,3.4-1c1.6-0.3,3.2,0.7,3.5,2.3c0.1,0.3,0.1,0.5,0.1,0.8c0,1.4-1,2.7-2.4,3
		c-2.3,0.8-4,2.3-4.3,4.7c-0.2,2.9-0.2,5.8-0.1,8.7c0.9,0,1.8-0.2,2.6-0.4c5.5-2.3,9.3-6.3,10.7-12c1.6-6.4-3.6-12.5-10.3-12.6
		c-3,0-3.2,0.2-3.2,3.1C1760.3,888.6,1760.3,889.7,1760.3,891L1760.3,891z M1676,891c0-1.7-0.1-3.2,0-4.7c0.1-1.2-0.5-1.5-1.6-1.7
		c-7.5-1.3-14.1,5.9-11.8,13.2c1.5,4.7,4.9,8.6,9.4,10.7c1.3,0.5,2.6,0.9,4,1.1c0-2-0.1-3.6,0-5.1c0.3-4.2-0.8-7.3-5.3-8.8
		c-1.6-0.5-2-2.1-1.6-3.7c0.4-1.5,1.9-2.4,3.4-2.1c0,0,0,0,0,0C1673.8,890.3,1674.9,890.6,1676,891L1676,891z"/>
	<path id="Trazado_120" d="M1718.2,921.8c-4.3,0-8.4-1.6-11.6-4.5c-1.6-1.5-1.9-3.4-0.8-4.8c1.2-1.4,3-1.4,4.8,0c5,4,10.1,4,15.1,0
		c1.8-1.4,3.6-1.4,4.8,0c1.1,1.3,0.9,3.2-0.6,4.6C1726.7,920.2,1722.5,921.9,1718.2,921.8z"/>
	<path id="Trazado_121" d="M1736.2,891.3c0,0.8,0,1.7,0,2.5c0.1,1.7-1.3,3.1-3,3.2c0,0-0.1,0-0.1,0c-1.7,0.1-3.1-1.3-3.1-2.9
		c0-0.1,0-0.2,0-0.2c-0.1-1.6-0.1-3.2,0-4.8c-0.1-1.7,1.3-3.2,3-3.2c0,0,0,0,0.1,0c1.7,0,3.1,1.5,3.1,3.2
		C1736.2,889.8,1736.2,890.6,1736.2,891.3z"/>
	<path id="Trazado_122" d="M1706.4,891.6c0,0.8,0.1,1.7,0,2.5c-0.1,1.7-1.6,3-3.3,2.9c-1.6-0.1-2.8-1.4-2.9-2.9
		c-0.1-1.7-0.1-3.5,0-5.2c0.1-1.7,1.4-3,3.1-3c1.7,0,3,1.4,3.1,3C1706.4,889.8,1706.4,890.7,1706.4,891.6z"/>
</g>
</svg>
