<svg id="Capa_1" data-name="Capa 1" xmlns="http://www.w3.org/2000/svg" viewBox="0 0 27.7 28"><defs><style>.cls-1{fill:#c72124;}</style></defs><title>WathsApp</title><g id="Grupo_154" data-name="Grupo 154"><path id="Trazado_26" data-name="Trazado 26" class="cls-1" d="M44.6,65.8l.2-1.8,1.7-6A13.7,13.7,0,1,1,65,63.6a14.8,14.8,0,0,1-2.9,1.2,13.9,13.9,0,0,1-9.8-1L47.6,65Zm7.9-4.3a1.6,1.6,0,0,1,.9.3A11.5,11.5,0,0,0,69.8,49.2a11.4,11.4,0,0,0-5-7.3,11.6,11.6,0,0,0-15.9,3.4,11.8,11.8,0,0,0-.4,11.8,1.5,1.5,0,0,1,.2,1.3l-1.2,4.4,4.4-1.2Zm-5.9-3.4Zm-.1-.3Z" transform="translate(-44.6 -37.8)"/></g><g id="Grupo_155" data-name="Grupo 155"><path id="Trazado_27" data-name="Trazado 27" class="cls-1" d="M62,58.2a4,4,0,0,1-1.5-.3A13,13,0,0,1,53.2,52a7.3,7.3,0,0,1-1.4-3.1,3.5,3.5,0,0,1,1.4-3.4,1.5,1.5,0,0,1,1.7-.2,1.2,1.2,0,0,1,.5.5,27.7,27.7,0,0,0,1,2.6,1,1,0,0,1-.2.7,2.7,2.7,0,0,1-.7.8.7.7,0,0,0-.1,1h0a9.8,9.8,0,0,0,4,3.8c.6.3.8.3,1.2-.2l.9-1.1a.5.5,0,0,1,.7-.1A24.4,24.4,0,0,1,65,54.8c.3.2.2.4.2.7a2.7,2.7,0,0,1-2,2.5Z" transform="translate(-44.6 -37.8)"/></g></svg>